<svg width="232" height="321" viewBox="0 0 232 321" fill="none" xmlns="http://www.w3.org/2000/svg">
<path d="M100.9 320.148C84.532 320.148 71.016 318.66 60.352 315.684C49.936 312.956 41.628 307.5 35.428 299.316C29.476 291.38 26.5 279.972 26.5 265.092V192.924C26.5 185.236 23.028 179.656 16.084 176.184C9.388 172.464 1.452 170.604 -7.724 170.604V137.124C1.452 137.124 9.388 135.388 16.084 131.916C23.028 128.196 26.5 122.492 26.5 114.804V42.636C26.5 27.756 29.476 16.348 35.428 8.41198C41.628 0.227985 49.936 -5.22802 60.352 -7.95603C71.016 -10.932 84.532 -12.42 100.9 -12.42V13.62C91.228 13.62 82.92 15.48 75.976 19.2C69.032 22.672 65.436 28.872 65.188 37.8C65.188 43.504 64.568 61.856 63.328 92.856L62.584 111.828C62.088 124.972 58.492 135.016 51.796 141.96C45.348 148.656 34.808 152.004 20.176 152.004V155.724C34.808 155.724 45.348 159.072 51.796 165.768C58.492 172.464 62.088 182.508 62.584 195.9L63.328 214.872C64.568 245.872 65.188 264.224 65.188 269.928C65.436 286.048 77.34 294.108 100.9 294.108V320.148Z" fill="url(#paint0_linear)"/>
<path d="M123.264 294.108C146.824 294.108 158.604 286.048 158.604 269.928C159.348 249.344 159.844 236.696 160.092 231.984C160.34 226.776 160.588 221.072 160.836 214.872C161.084 208.672 161.208 202.348 161.208 195.9C161.704 182.756 165.3 172.836 171.996 166.14C178.692 159.196 189.356 155.724 203.988 155.724V152.004C189.356 152.004 178.692 148.656 171.996 141.96C165.3 135.016 161.704 124.972 161.208 111.828C161.208 105.38 161.084 99.056 160.836 92.856C160.588 86.656 160.34 80.952 160.092 75.744C159.844 71.032 159.348 58.384 158.604 37.8C158.604 28.872 155.132 22.672 148.188 19.2C141.244 15.48 132.936 13.62 123.264 13.62V-12.42C139.632 -12.42 153.024 -10.932 163.44 -7.95603C174.104 -5.22802 182.412 0.227985 188.364 8.41198C194.564 16.348 197.664 27.756 197.664 42.636V114.804C197.664 122.492 201.012 128.196 207.708 131.916C214.652 135.388 222.712 137.124 231.888 137.124V170.604C222.712 170.604 214.652 172.464 207.708 176.184C201.012 179.656 197.664 185.236 197.664 192.924V265.092C197.664 279.972 194.564 291.38 188.364 299.316C182.412 307.5 174.104 312.956 163.44 315.684C153.024 318.66 139.632 320.148 123.264 320.148V294.108Z" fill="url(#paint1_linear)"/>
<defs>
<linearGradient id="paint0_linear" x1="126" y1="180" x2="71" y2="145" gradientUnits="userSpaceOnUse">
<stop stop-color="#FF927A"/>
<stop offset="1" stop-color="#0066FF"/>
</linearGradient>
<linearGradient id="paint1_linear" x1="126" y1="180" x2="71" y2="145" gradientUnits="userSpaceOnUse">
<stop stop-color="#FF927A"/>
<stop offset="1" stop-color="#0066FF"/>
</linearGradient>
</defs>
</svg>
