<svg width="60" height="79" viewBox="0 0 60 79" fill="none" xmlns="http://www.w3.org/2000/svg">
<path fill-rule="evenodd" clip-rule="evenodd" d="M2.84769 18.9105C7.90789 3.75059 22.314 -0.0751316 30 0.00111046C37.686 -0.0751316 52.0921 3.75059 57.1523 18.9105C63.1276 36.8119 58.8658 56.3863 52.0558 65.5879C47.4049 71.8721 39.9848 78.6207 30 78.6207C20.0152 78.6207 12.5951 71.8721 7.94424 65.5879C1.1342 56.3863 -3.12758 36.8119 2.84769 18.9105ZM41.5382 29.9525C39.9334 29.9525 36.5245 31.0901 36.3917 33.6331C36.2257 36.8119 38.7159 40.1579 42.0363 40.1579C45.3566 40.1579 47.5149 36.6446 47.6809 34.135C47.8469 31.6255 45.6887 29.9525 41.5382 29.9525ZM23.1113 33.6331C22.9785 31.0901 19.5696 29.9525 17.9648 29.9525C13.8144 29.9525 11.6561 31.6255 11.8221 34.135C11.9882 36.6446 14.1464 40.1579 17.4667 40.1579C20.7871 40.1579 23.2774 36.8119 23.1113 33.6331ZM18.9722 8.57527C19.3321 9.1504 19.0237 9.99807 18.2834 10.4686C17.5431 10.9391 16.6511 10.8543 16.2912 10.2792C15.9313 9.70408 16.2396 8.85641 16.98 8.38588C17.7203 7.91536 18.6122 8.00015 18.9722 8.57527ZM17.6193 16.751C18.3597 16.2805 18.668 15.4328 18.3081 14.8577C17.9482 14.2826 17.0562 14.1978 16.3159 14.6683C15.5756 15.1388 15.2672 15.9865 15.6271 16.5616C15.9871 17.1368 16.879 17.2215 17.6193 16.751ZM19.0103 20.9402C19.4994 21.7217 19.2044 22.7948 18.3513 23.337C17.4982 23.8792 16.4101 23.6852 15.921 22.9037C15.4319 22.1221 15.727 21.049 16.58 20.5068C17.4331 19.9647 18.5212 20.1587 19.0103 20.9402ZM24.1064 25.268C25.115 25.268 25.9326 24.519 25.9326 23.595C25.9326 22.671 25.115 21.9219 24.1064 21.9219C23.0978 21.9219 22.2802 22.671 22.2802 23.595C22.2802 24.519 23.0978 25.268 24.1064 25.268ZM29.4189 53.0402C30.4275 53.0402 31.2451 52.441 31.2451 51.7018C31.2451 50.9626 30.4275 50.3634 29.4189 50.3634C28.4104 50.3634 27.5927 50.9626 27.5927 51.7018C27.5927 52.441 28.4104 53.0402 29.4189 53.0402ZM9.34697 18.1337C9.71927 17.3354 9.64807 16.5116 9.18793 16.2936C8.72779 16.0757 8.05297 16.5462 7.68067 17.3445C7.30837 18.1427 7.37958 18.9665 7.83972 19.1845C8.29985 19.4024 8.97467 18.9319 9.34697 18.1337ZM8.63478 25.181C9.14172 25.2201 9.49852 25.9647 9.43172 26.8442C9.36492 27.7237 8.89981 28.4049 8.39286 28.3658C7.88592 28.3267 7.52912 27.5821 7.59593 26.7026C7.66273 25.8231 8.12785 25.1419 8.63478 25.181ZM25.1025 61.4054C25.9277 61.4054 26.5966 60.7312 26.5966 59.8996C26.5966 59.068 25.9277 58.3939 25.1025 58.3939C24.2773 58.3939 23.6083 59.068 23.6083 59.8996C23.6083 60.7312 24.2773 61.4054 25.1025 61.4054ZM20.0579 61.2568C19.501 61.5592 18.7322 61.211 18.3406 60.479C17.9491 59.747 18.0831 58.9084 18.64 58.6059C19.1969 58.3034 19.9657 58.6516 20.3573 59.3836C20.7488 60.1156 20.6148 60.9543 20.0579 61.2568ZM13.6922 63.8262C14.0837 64.5582 14.7385 64.9683 15.1548 64.7423C15.571 64.5162 15.591 63.7395 15.1994 63.0074C14.8079 62.2754 14.1531 61.8653 13.7368 62.0914C13.3206 62.3175 13.3006 63.0942 13.6922 63.8262ZM9.04485 52.4839C8.60851 52.6675 7.99704 52.1942 7.6791 51.4268C7.36115 50.6594 7.45713 49.8885 7.89347 49.7049C8.32981 49.5213 8.94127 49.9946 9.25922 50.762C9.57717 51.5293 9.48119 52.3003 9.04485 52.4839ZM9.90651 48.4025C10.2245 49.1698 10.9301 49.6034 11.4827 49.371C12.0352 49.1385 12.2254 48.3279 11.9075 47.5605C11.5895 46.7931 10.8839 46.3595 10.3313 46.592C9.77875 46.8245 9.58856 47.6351 9.90651 48.4025ZM26.6105 67.0415C26.4513 67.7244 25.671 68.124 24.8677 67.9338C24.0643 67.7437 23.5421 67.0359 23.7013 66.3529C23.8605 65.6699 24.6408 65.2704 25.4441 65.4605C26.2475 65.6507 26.7697 66.3585 26.6105 67.0415ZM25.5253 73.7017C26.3287 73.8919 27.0798 73.6176 27.2029 73.089C27.3261 72.5605 26.7747 71.9779 25.9714 71.7878C25.1681 71.5977 24.417 71.872 24.2938 72.4005C24.1706 72.929 24.722 73.5116 25.5253 73.7017ZM39.8657 8.57527C39.5058 9.1504 39.8141 9.99807 40.5545 10.4686C41.2948 10.9391 42.1867 10.8543 42.5467 10.2792C42.9066 9.70408 42.5982 8.85641 41.8579 8.38588C41.1176 7.91535 40.2256 8.00015 39.8657 8.57527ZM41.2185 16.751C40.4782 16.2805 40.1698 15.4328 40.5298 14.8577C40.8897 14.2826 41.7817 14.1978 42.522 14.6683C43.2623 15.1388 43.5707 15.9865 43.2108 16.5616C42.8508 17.1367 41.9589 17.2215 41.2185 16.751ZM39.8276 20.9402C39.3384 21.7217 39.6335 22.7948 40.4866 23.337C41.3397 23.8792 42.4277 23.6852 42.9169 22.9037C43.406 22.1221 43.1109 21.049 42.2578 20.5068C41.4047 19.9647 40.3167 20.1587 39.8276 20.9402ZM32.9053 23.595C32.9053 24.519 33.7229 25.268 34.7315 25.268C35.7401 25.268 36.5577 24.519 36.5577 23.595C36.5577 22.671 35.7401 21.9219 34.7315 21.9219C33.7229 21.9219 32.9053 22.671 32.9053 23.595ZM49.4909 18.1337C49.1186 17.3354 49.1898 16.5116 49.65 16.2936C50.1101 16.0757 50.7849 16.5462 51.1572 17.3445C51.5295 18.1427 51.4583 18.9665 50.9982 19.1845C50.538 19.4024 49.8632 18.9319 49.4909 18.1337ZM50.2031 25.181C49.6962 25.2201 49.3394 25.9647 49.4062 26.8442C49.473 27.7237 49.9381 28.4049 50.445 28.3658C50.952 28.3267 51.3088 27.5821 51.242 26.7026C51.1752 25.8231 50.71 25.1419 50.2031 25.181ZM33.7354 61.4054C32.9102 61.4054 32.2412 60.7312 32.2412 59.8996C32.2412 59.0681 32.9102 58.3939 33.7354 58.3939C34.5606 58.3939 35.2296 59.0681 35.2296 59.8996C35.2296 60.7312 34.5606 61.4054 33.7354 61.4054ZM38.78 61.2568C39.3368 61.5592 40.1057 61.211 40.4972 60.479C40.8888 59.747 40.7548 58.9084 40.1979 58.6059C39.641 58.3034 38.8722 58.6516 38.4806 59.3836C38.0891 60.1156 38.2231 60.9543 38.78 61.2568ZM45.1457 63.8262C44.7542 64.5582 44.0994 64.9684 43.6831 64.7423C43.2669 64.5162 43.2469 63.7395 43.6384 63.0074C44.03 62.2754 44.6848 61.8653 45.101 62.0914C45.5173 62.3175 45.5373 63.0942 45.1457 63.8262ZM49.793 52.4839C50.2294 52.6675 50.8408 52.1942 51.1588 51.4268C51.4767 50.6594 51.3807 49.8885 50.9444 49.7049C50.5081 49.5213 49.8966 49.9946 49.5787 50.762C49.2607 51.5293 49.3567 52.3003 49.793 52.4839ZM48.9314 48.4025C48.6134 49.1698 47.9078 49.6034 47.3552 49.3709C46.8026 49.1385 46.6125 48.3279 46.9304 47.5605C47.2483 46.7931 47.954 46.3595 48.5066 46.592C49.0591 46.8245 49.2493 47.6351 48.9314 48.4025ZM32.2274 67.0415C32.3866 67.7244 33.1669 68.124 33.9702 67.9338C34.7736 67.7437 35.2958 67.0359 35.1366 66.3529C34.9774 65.6699 34.1971 65.2704 33.3938 65.4605C32.5904 65.6507 32.0682 66.3585 32.2274 67.0415ZM33.3126 73.7017C32.5092 73.8919 31.7581 73.6176 31.6349 73.0891C31.5118 72.5605 32.0631 71.978 32.8665 71.7878C33.6698 71.5977 34.4209 71.872 34.5441 72.4005C34.6673 72.929 34.1159 73.5116 33.3126 73.7017Z" fill="#FE5757"/>
<path fill-rule="evenodd" clip-rule="evenodd" d="M2.84769 18.9105C7.90789 3.75059 22.314 -0.0751316 30 0.00111046C37.686 -0.0751316 52.0921 3.75059 57.1523 18.9105C63.1276 36.8119 58.8658 56.3863 52.0558 65.5879C47.4049 71.8721 39.9848 78.6207 30 78.6207C20.0152 78.6207 12.5951 71.8721 7.94424 65.5879C1.1342 56.3863 -3.12758 36.8119 2.84769 18.9105ZM41.5382 29.9525C39.9334 29.9525 36.5245 31.0901 36.3917 33.6331C36.2257 36.8119 38.7159 40.1579 42.0363 40.1579C45.3566 40.1579 47.5149 36.6446 47.6809 34.135C47.8469 31.6255 45.6887 29.9525 41.5382 29.9525ZM23.1113 33.6331C22.9785 31.0901 19.5696 29.9525 17.9648 29.9525C13.8144 29.9525 11.6561 31.6255 11.8221 34.135C11.9882 36.6446 14.1464 40.1579 17.4667 40.1579C20.7871 40.1579 23.2774 36.8119 23.1113 33.6331ZM18.9722 8.57527C19.3321 9.1504 19.0237 9.99807 18.2834 10.4686C17.5431 10.9391 16.6511 10.8543 16.2912 10.2792C15.9313 9.70408 16.2396 8.85641 16.98 8.38588C17.7203 7.91536 18.6122 8.00015 18.9722 8.57527ZM17.6193 16.751C18.3597 16.2805 18.668 15.4328 18.3081 14.8577C17.9482 14.2826 17.0562 14.1978 16.3159 14.6683C15.5756 15.1388 15.2672 15.9865 15.6271 16.5616C15.9871 17.1368 16.879 17.2215 17.6193 16.751ZM19.0103 20.9402C19.4994 21.7217 19.2044 22.7948 18.3513 23.337C17.4982 23.8792 16.4101 23.6852 15.921 22.9037C15.4319 22.1221 15.727 21.049 16.58 20.5068C17.4331 19.9647 18.5212 20.1587 19.0103 20.9402ZM24.1064 25.268C25.115 25.268 25.9326 24.519 25.9326 23.595C25.9326 22.671 25.115 21.9219 24.1064 21.9219C23.0978 21.9219 22.2802 22.671 22.2802 23.595C22.2802 24.519 23.0978 25.268 24.1064 25.268ZM29.4189 53.0402C30.4275 53.0402 31.2451 52.441 31.2451 51.7018C31.2451 50.9626 30.4275 50.3634 29.4189 50.3634C28.4104 50.3634 27.5927 50.9626 27.5927 51.7018C27.5927 52.441 28.4104 53.0402 29.4189 53.0402ZM9.34697 18.1337C9.71927 17.3354 9.64807 16.5116 9.18793 16.2936C8.72779 16.0757 8.05297 16.5462 7.68067 17.3445C7.30837 18.1427 7.37958 18.9665 7.83972 19.1845C8.29985 19.4024 8.97467 18.9319 9.34697 18.1337ZM8.63478 25.181C9.14172 25.2201 9.49852 25.9647 9.43172 26.8442C9.36492 27.7237 8.89981 28.4049 8.39286 28.3658C7.88592 28.3267 7.52912 27.5821 7.59593 26.7026C7.66273 25.8231 8.12785 25.1419 8.63478 25.181ZM25.1025 61.4054C25.9277 61.4054 26.5966 60.7312 26.5966 59.8996C26.5966 59.068 25.9277 58.3939 25.1025 58.3939C24.2773 58.3939 23.6083 59.068 23.6083 59.8996C23.6083 60.7312 24.2773 61.4054 25.1025 61.4054ZM20.0579 61.2568C19.501 61.5592 18.7322 61.211 18.3406 60.479C17.9491 59.747 18.0831 58.9084 18.64 58.6059C19.1969 58.3034 19.9657 58.6516 20.3573 59.3836C20.7488 60.1156 20.6148 60.9543 20.0579 61.2568ZM13.6922 63.8262C14.0837 64.5582 14.7385 64.9683 15.1548 64.7423C15.571 64.5162 15.591 63.7395 15.1994 63.0074C14.8079 62.2754 14.1531 61.8653 13.7368 62.0914C13.3206 62.3175 13.3006 63.0942 13.6922 63.8262ZM9.04485 52.4839C8.60851 52.6675 7.99704 52.1942 7.6791 51.4268C7.36115 50.6594 7.45713 49.8885 7.89347 49.7049C8.32981 49.5213 8.94127 49.9946 9.25922 50.762C9.57717 51.5293 9.48119 52.3003 9.04485 52.4839ZM9.90651 48.4025C10.2245 49.1698 10.9301 49.6034 11.4827 49.371C12.0352 49.1385 12.2254 48.3279 11.9075 47.5605C11.5895 46.7931 10.8839 46.3595 10.3313 46.592C9.77875 46.8245 9.58856 47.6351 9.90651 48.4025ZM26.6105 67.0415C26.4513 67.7244 25.671 68.124 24.8677 67.9338C24.0643 67.7437 23.5421 67.0359 23.7013 66.3529C23.8605 65.6699 24.6408 65.2704 25.4441 65.4605C26.2475 65.6507 26.7697 66.3585 26.6105 67.0415ZM25.5253 73.7017C26.3287 73.8919 27.0798 73.6176 27.2029 73.089C27.3261 72.5605 26.7747 71.9779 25.9714 71.7878C25.1681 71.5977 24.417 71.872 24.2938 72.4005C24.1706 72.929 24.722 73.5116 25.5253 73.7017ZM39.8657 8.57527C39.5058 9.1504 39.8141 9.99807 40.5545 10.4686C41.2948 10.9391 42.1867 10.8543 42.5467 10.2792C42.9066 9.70408 42.5982 8.85641 41.8579 8.38588C41.1176 7.91535 40.2256 8.00015 39.8657 8.57527ZM41.2185 16.751C40.4782 16.2805 40.1698 15.4328 40.5298 14.8577C40.8897 14.2826 41.7817 14.1978 42.522 14.6683C43.2623 15.1388 43.5707 15.9865 43.2108 16.5616C42.8508 17.1367 41.9589 17.2215 41.2185 16.751ZM39.8276 20.9402C39.3384 21.7217 39.6335 22.7948 40.4866 23.337C41.3397 23.8792 42.4277 23.6852 42.9169 22.9037C43.406 22.1221 43.1109 21.049 42.2578 20.5068C41.4047 19.9647 40.3167 20.1587 39.8276 20.9402ZM32.9053 23.595C32.9053 24.519 33.7229 25.268 34.7315 25.268C35.7401 25.268 36.5577 24.519 36.5577 23.595C36.5577 22.671 35.7401 21.9219 34.7315 21.9219C33.7229 21.9219 32.9053 22.671 32.9053 23.595ZM49.4909 18.1337C49.1186 17.3354 49.1898 16.5116 49.65 16.2936C50.1101 16.0757 50.7849 16.5462 51.1572 17.3445C51.5295 18.1427 51.4583 18.9665 50.9982 19.1845C50.538 19.4024 49.8632 18.9319 49.4909 18.1337ZM50.2031 25.181C49.6962 25.2201 49.3394 25.9647 49.4062 26.8442C49.473 27.7237 49.9381 28.4049 50.445 28.3658C50.952 28.3267 51.3088 27.5821 51.242 26.7026C51.1752 25.8231 50.71 25.1419 50.2031 25.181ZM33.7354 61.4054C32.9102 61.4054 32.2412 60.7312 32.2412 59.8996C32.2412 59.0681 32.9102 58.3939 33.7354 58.3939C34.5606 58.3939 35.2296 59.0681 35.2296 59.8996C35.2296 60.7312 34.5606 61.4054 33.7354 61.4054ZM38.78 61.2568C39.3368 61.5592 40.1057 61.211 40.4972 60.479C40.8888 59.747 40.7548 58.9084 40.1979 58.6059C39.641 58.3034 38.8722 58.6516 38.4806 59.3836C38.0891 60.1156 38.2231 60.9543 38.78 61.2568ZM45.1457 63.8262C44.7542 64.5582 44.0994 64.9684 43.6831 64.7423C43.2669 64.5162 43.2469 63.7395 43.6384 63.0074C44.03 62.2754 44.6848 61.8653 45.101 62.0914C45.5173 62.3175 45.5373 63.0942 45.1457 63.8262ZM49.793 52.4839C50.2294 52.6675 50.8408 52.1942 51.1588 51.4268C51.4767 50.6594 51.3807 49.8885 50.9444 49.7049C50.5081 49.5213 49.8966 49.9946 49.5787 50.762C49.2607 51.5293 49.3567 52.3003 49.793 52.4839ZM48.9314 48.4025C48.6134 49.1698 47.9078 49.6034 47.3552 49.3709C46.8026 49.1385 46.6125 48.3279 46.9304 47.5605C47.2483 46.7931 47.954 46.3595 48.5066 46.592C49.0591 46.8245 49.2493 47.6351 48.9314 48.4025ZM32.2274 67.0415C32.3866 67.7244 33.1669 68.124 33.9702 67.9338C34.7736 67.7437 35.2958 67.0359 35.1366 66.3529C34.9774 65.6699 34.1971 65.2704 33.3938 65.4605C32.5904 65.6507 32.0682 66.3585 32.2274 67.0415ZM33.3126 73.7017C32.5092 73.8919 31.7581 73.6176 31.6349 73.0891C31.5118 72.5605 32.0631 71.978 32.8665 71.7878C33.6698 71.5977 34.4209 71.872 34.5441 72.4005C34.6673 72.929 34.1159 73.5116 33.3126 73.7017Z" fill="url(#paint0_radial)"/>
<defs>
<radialGradient id="paint0_radial" cx="0" cy="0" r="1" gradientUnits="userSpaceOnUse" gradientTransform="translate(29.8832 39.1488) rotate(-90) scale(45.8409 32.6586)">
<stop stop-color="#0038FF"/>
<stop offset="0.795621" stop-color="#FF9179"/>
</radialGradient>
</defs>
</svg>
